<svg width="24" height="24" viewBox="0 0 24 24" fill="none" xmlns="http://www.w3.org/2000/svg">
<rect width="24" height="24" rx="6" fill="url(#paint0_linear_1280_6188)"/>
<g clip-path="url(#clip0_1280_6188)">
<path fill-rule="evenodd" clip-rule="evenodd" d="M4.7998 12C4.7998 8.02344 8.02325 4.79999 11.9998 4.79999C15.9764 4.79999 19.1998 8.02344 19.1998 12C19.1998 15.9765 15.9764 19.2 11.9998 19.2C8.02325 19.2 4.7998 15.9765 4.7998 12ZM11.9998 5.86665C8.61236 5.86665 5.86647 8.61254 5.86647 12C5.86647 15.3874 8.61236 18.1333 11.9998 18.1333C15.3873 18.1333 18.1331 15.3874 18.1331 12C18.1331 8.61254 15.3873 5.86665 11.9998 5.86665Z" fill="#F0F0F0"/>
<path fill-rule="evenodd" clip-rule="evenodd" d="M12.0002 7.1333C12.2947 7.1333 12.5335 7.37208 12.5335 7.66663V8.39265C13.2293 8.51451 13.9228 8.83499 14.3773 9.28951C14.5856 9.49779 14.5856 9.83548 14.3773 10.0438C14.169 10.252 13.8313 10.252 13.623 10.0438C13.2782 9.69894 12.6127 9.42318 11.9874 9.40582C11.9861 9.40579 11.9848 9.40575 11.9836 9.40571C11.6183 9.39609 11.3365 9.47702 11.1589 9.61158C11.0032 9.72952 10.8668 9.93311 10.8668 10.3333C10.8668 10.4977 10.9033 10.6044 10.949 10.681C10.9966 10.7608 11.0725 10.8381 11.1927 10.9146C11.4546 11.0812 11.8262 11.1876 12.3072 11.3188C12.3203 11.3223 12.3336 11.326 12.3469 11.3296C12.7757 11.4464 13.3008 11.5894 13.7136 11.8521C13.937 11.9943 14.1476 12.1826 14.3006 12.4389C14.4553 12.6982 14.5335 12.9977 14.5335 13.3333C14.5335 14.0788 14.2036 14.649 13.6901 15.0087C13.3497 15.247 12.9462 15.3819 12.5335 15.4354V16.3333C12.5335 16.6279 12.2947 16.8666 12.0002 16.8666C11.7056 16.8666 11.4668 16.6279 11.4668 16.3333V15.4045C10.7411 15.273 10.02 14.9162 9.57326 14.3197C9.3967 14.0839 9.44471 13.7496 9.68048 13.5731C9.91625 13.3965 10.2505 13.4445 10.4271 13.6803C10.7326 14.0883 11.3571 14.3703 12.0171 14.3942C12.0187 14.3943 12.0203 14.3943 12.0219 14.3944C12.4517 14.4093 12.8268 14.311 13.0782 14.1349C13.3087 13.9736 13.4668 13.7284 13.4668 13.3333C13.4668 13.1689 13.4304 13.0622 13.3847 12.9856C13.3371 12.9058 13.2612 12.8285 13.1409 12.752C12.8791 12.5854 12.5074 12.479 12.0265 12.3478C12.0133 12.3443 12.0001 12.3406 11.9867 12.337C11.558 12.2202 11.0329 12.0772 10.6201 11.8145C10.3966 11.6723 10.186 11.484 10.0331 11.2277C9.87831 10.9684 9.80016 10.6689 9.80016 10.3333C9.80016 9.64683 10.0571 9.10808 10.5148 8.76136C10.7974 8.54724 11.1286 8.42744 11.4668 8.37356V7.66663C11.4668 7.37208 11.7056 7.1333 12.0002 7.1333Z" fill="#F0F0F0"/>
</g>
<defs>
<linearGradient id="paint0_linear_1280_6188" x1="23.23" y1="1.07006" x2="4.8814" y2="-2.33145" gradientUnits="userSpaceOnUse">
<stop stop-color="#E88B53"/>
<stop offset="0.820789" stop-color="#C33D71"/>
</linearGradient>
<clipPath id="clip0_1280_6188">
<rect width="16" height="16" fill="white" transform="translate(4 4)"/>
</clipPath>
</defs>
</svg>
