<svg width="24" height="24" viewBox="0 0 24 24" fill="none" xmlns="http://www.w3.org/2000/svg">
<rect width="24" height="24" rx="6" fill="url(#paint0_linear_1280_6241)"/>
<path fill-rule="evenodd" clip-rule="evenodd" d="M6.97631 14.3096C7.60143 13.6845 8.44928 13.3333 9.33333 13.3333H14.6667C15.5507 13.3333 16.3986 13.6845 17.0237 14.3096C17.6488 14.9347 18 15.7826 18 16.6666V18C18 18.3682 17.7015 18.6666 17.3333 18.6666C16.9651 18.6666 16.6667 18.3682 16.6667 18V16.6666C16.6667 16.1362 16.456 15.6275 16.0809 15.2524C15.7058 14.8774 15.1971 14.6666 14.6667 14.6666H9.33333C8.8029 14.6666 8.29419 14.8774 7.91912 15.2524C7.54405 15.6275 7.33333 16.1362 7.33333 16.6666V18C7.33333 18.3682 7.03486 18.6666 6.66667 18.6666C6.29848 18.6666 6 18.3682 6 18V16.6666C6 15.7826 6.35119 14.9347 6.97631 14.3096Z" fill="#F0F0F0"/>
<path fill-rule="evenodd" clip-rule="evenodd" d="M12.0003 6.66665C10.8958 6.66665 10.0003 7.56208 10.0003 8.66665C10.0003 9.77122 10.8958 10.6666 12.0003 10.6666C13.1049 10.6666 14.0003 9.77122 14.0003 8.66665C14.0003 7.56208 13.1049 6.66665 12.0003 6.66665ZM8.66699 8.66665C8.66699 6.8257 10.1594 5.33331 12.0003 5.33331C13.8413 5.33331 15.3337 6.8257 15.3337 8.66665C15.3337 10.5076 13.8413 12 12.0003 12C10.1594 12 8.66699 10.5076 8.66699 8.66665Z" fill="#F0F0F0"/>
<defs>
<linearGradient id="paint0_linear_1280_6241" x1="13.7657" y1="-10.022" x2="-9.65718" y2="-3.03086" gradientUnits="userSpaceOnUse">
<stop offset="0.0771054" stop-color="#945BEB"/>
<stop offset="1" stop-color="#6864E9"/>
</linearGradient>
</defs>
</svg>
