<svg width="24" height="24" viewBox="0 0 24 24" fill="none" xmlns="http://www.w3.org/2000/svg">
<rect width="24" height="24" rx="6" fill="url(#paint0_linear_1280_6319)"/>
<path d="M17.697 6.66669H8.9697C8.71275 6.66745 8.46655 6.76915 8.28487 6.94957C8.10318 7.13 8.00077 7.37449 8 7.62965V14.3704C8.00077 14.6255 8.10318 14.87 8.28487 15.0505C8.46655 15.2309 8.71275 15.3326 8.9697 15.3334H17.697C17.9539 15.3326 18.2001 15.2309 18.3818 15.0505C18.5635 14.87 18.6659 14.6255 18.6667 14.3704V7.62965C18.6659 7.37449 18.5635 7.13 18.3818 6.94957C18.2001 6.76915 17.9539 6.66745 17.697 6.66669ZM17.697 14.3704H8.9697V7.62965H17.697V14.3704Z" fill="#F0F0F0" stroke="#F0F0F0" stroke-width="0.2"/>
<path d="M13.0367 17.0477H6.29597V12.2858H7.25893V11.3334H6.29597C6.04081 11.3341 5.79632 11.4347 5.6159 11.6132C5.43547 11.7916 5.33377 12.0334 5.33301 12.2858V17.0477C5.33377 17.3 5.43547 17.5418 5.6159 17.7203C5.79632 17.8987 6.04081 17.9993 6.29597 18H13.0367C13.2919 17.9993 13.5364 17.8987 13.7168 17.7203C13.8972 17.5418 13.9989 17.3 13.9997 17.0477V16.0953H13.0367V17.0477Z" fill="#F0F0F0" stroke="#F0F0F0" stroke-width="0.2"/>
<defs>
<linearGradient id="paint0_linear_1280_6319" x1="24" y1="2.25" x2="8.29332" y2="-3.89722" gradientUnits="userSpaceOnUse">
<stop offset="0.15697" stop-color="#139DC9"/>
<stop offset="1" stop-color="#B74182"/>
</linearGradient>
</defs>
</svg>
