<svg width="24" height="24" viewBox="0 0 24 24" fill="none" xmlns="http://www.w3.org/2000/svg">
<rect width="24" height="24" rx="6" fill="url(#paint0_linear_1348_1816)"/>
<path d="M13.4416 6.66669C14.0169 6.66669 14.4914 7.13159 14.4914 7.69536C14.4914 8.24892 14.0338 8.70681 13.4725 8.72316V10.0876C13.7587 10.2179 14.0148 10.4009 14.2313 10.6262H15.6507C17.3123 10.6262 18.667 11.9535 18.667 13.5816V16.9818C18.667 17.075 18.6291 17.1644 18.5618 17.2305C18.4946 17.2964 18.4033 17.3333 18.3082 17.3333H15.6388C15.4406 17.3333 15.2801 17.1759 15.2801 16.9818V13.9332H14.2347C13.7671 14.4206 13.1139 14.7028 12.4249 14.7029C11.7361 14.7029 11.0828 14.4207 10.6151 13.9332H6.05092V14.4895C6.05092 14.5827 6.01332 14.6722 5.94603 14.7381C5.87874 14.8041 5.78753 14.8412 5.69223 14.8412C5.59718 14.8411 5.50584 14.8041 5.43855 14.7381C5.37139 14.6721 5.33366 14.5827 5.33366 14.4895C5.33366 14.3963 5.33366 10.1032 5.33366 10.1032C5.33366 9.909 5.4942 9.75168 5.69222 9.75168C5.89038 9.75168 6.05105 9.90899 6.05105 10.1032V10.626H10.6185C10.8338 10.402 11.0885 10.2197 11.373 10.0894V8.72313C10.8115 8.70691 10.3538 8.24892 10.3538 7.69533C10.3538 7.13156 10.8283 6.66666 11.4037 6.66666L13.4416 6.66669ZM13.4416 7.36992H11.4037C11.2135 7.36992 11.0715 7.50888 11.0715 7.69523C11.0715 7.8816 11.2135 8.0208 11.4037 8.0208H11.7215C11.7254 8.02068 11.7294 8.0208 11.7334 8.0208H13.1153C13.1192 8.0208 13.1231 8.0208 13.1271 8.02093H13.4454C13.6356 8.02093 13.7776 7.88172 13.7776 7.69536C13.7776 7.509 13.6356 7.37004 13.4454 7.37004L13.4416 7.36992ZM12.7549 8.72394H12.0906V10.3214C12.0906 10.4716 11.9932 10.6051 11.8484 10.6539C11.5355 10.7593 11.2593 10.9483 11.0516 11.1992C10.9835 11.2814 10.8812 11.3292 10.7731 11.3292H6.06385V13.2299H10.7731C10.8812 13.2299 10.9835 13.2778 11.0517 13.36C11.3867 13.7644 11.8911 13.9996 12.425 13.9996C12.9589 13.9996 13.4632 13.7645 13.7982 13.36C13.8664 13.2778 13.9688 13.23 14.0768 13.23H15.6388C15.8369 13.23 15.9975 13.3874 15.9975 13.5815V16.6302H17.9493V13.5815C17.9493 12.3334 16.9244 11.3292 15.6506 11.3292H14.0767C13.9686 11.3292 13.8664 11.2814 13.7982 11.1992C13.5895 10.9473 13.3122 10.7578 12.9977 10.6526C12.8525 10.604 12.7549 10.4703 12.7549 10.3199L12.7549 8.72394Z" fill="#F0F0F0" stroke="#F0F0F0" stroke-width="0.4"/>
<defs>
<linearGradient id="paint0_linear_1348_1816" x1="23.1" y1="1.71429" x2="0.657138" y2="1.6757" gradientUnits="userSpaceOnUse">
<stop stop-color="#DA5596"/>
<stop offset="0.738299" stop-color="#E04F63"/>
</linearGradient>
</defs>
</svg>
