<svg width="24" height="24" viewBox="0 0 24 24" fill="none" xmlns="http://www.w3.org/2000/svg">
<rect width="24" height="24" rx="6" fill="url(#paint0_linear_1348_1722)"/>
<path fill-rule="evenodd" clip-rule="evenodd" d="M8.22474 7.95519C8.48513 8.2155 8.4852 8.63761 8.2249 8.898C7.47919 9.64395 6.97141 10.5943 6.76577 11.6288C6.56012 12.6633 6.66584 13.7356 7.06956 14.71C7.47328 15.6844 8.15686 16.5173 9.03389 17.1032C9.91091 17.6892 10.942 18.002 11.9967 18.002C13.0515 18.002 14.0826 17.6892 14.9596 17.1032C15.8366 16.5173 16.5202 15.6844 16.9239 14.71C17.3277 13.7356 17.4334 12.6633 17.2277 11.6288C17.0221 10.5943 16.5143 9.64395 15.7686 8.898C15.5083 8.63761 15.5084 8.2155 15.7688 7.95519C16.0291 7.69489 16.4513 7.69496 16.7116 7.95535C17.6437 8.88779 18.2784 10.0757 18.5355 11.3688C18.7925 12.662 18.6604 14.0023 18.1557 15.2204C17.6511 16.4384 16.7966 17.4795 15.7003 18.2119C14.604 18.9444 13.3152 19.3353 11.9967 19.3353C10.6783 19.3353 9.38945 18.9444 8.29317 18.2119C7.19689 17.4795 6.34241 16.4384 5.83776 15.2204C5.33311 14.0023 5.20096 12.662 5.45802 11.3688C5.71508 10.0757 6.3498 8.88779 7.28193 7.95535C7.54224 7.69496 7.96435 7.69489 8.22474 7.95519Z" fill="#F0F0F0"/>
<path fill-rule="evenodd" clip-rule="evenodd" d="M11.9997 4.66669C12.3679 4.66669 12.6663 4.96516 12.6663 5.33335V12C12.6663 12.3682 12.3679 12.6667 11.9997 12.6667C11.6315 12.6667 11.333 12.3682 11.333 12V5.33335C11.333 4.96516 11.6315 4.66669 11.9997 4.66669Z" fill="#F0F0F0"/>
<defs>
<linearGradient id="paint0_linear_1348_1722" x1="21.5" y1="1.5" x2="-1.73984" y2="24.3119" gradientUnits="userSpaceOnUse">
<stop offset="0.118773" stop-color="#4887B5"/>
<stop offset="0.684306" stop-color="#7E5181"/>
</linearGradient>
</defs>
</svg>
