<svg width="24" height="24" viewBox="0 0 24 24" fill="none" xmlns="http://www.w3.org/2000/svg">
<rect width="24" height="24" rx="6" fill="url(#paint0_linear_1280_6262)"/>
<g clip-path="url(#clip0_1280_6262)">
<path fill-rule="evenodd" clip-rule="evenodd" d="M11.9998 5.86665C8.61246 5.86665 5.86647 8.61264 5.86647 12C5.86647 15.3873 8.61246 18.1333 11.9998 18.1333C15.3872 18.1333 18.1331 15.3873 18.1331 12C18.1331 8.61264 15.3872 5.86665 11.9998 5.86665ZM4.7998 12C4.7998 8.02354 8.02335 4.79999 11.9998 4.79999C15.9763 4.79999 19.1998 8.02354 19.1998 12C19.1998 15.9764 15.9763 19.2 11.9998 19.2C8.02335 19.2 4.7998 15.9764 4.7998 12Z" fill="#F0F0F0"/>
<path fill-rule="evenodd" clip-rule="evenodd" d="M4.7998 12C4.7998 11.7055 5.03859 11.4667 5.33314 11.4667H18.6665C18.961 11.4667 19.1998 11.7055 19.1998 12C19.1998 12.2946 18.961 12.5333 18.6665 12.5333H5.33314C5.03859 12.5333 4.7998 12.2946 4.7998 12Z" fill="#F0F0F0"/>
<path fill-rule="evenodd" clip-rule="evenodd" d="M9.86659 12C9.91356 14.1366 10.6669 16.1915 11.9998 17.8478C13.3327 16.1915 14.0861 14.1366 14.133 12C14.0861 9.86342 13.3327 7.8085 11.9998 6.15217C10.6669 7.8085 9.91356 9.86342 9.86659 12ZM11.9998 5.33333L11.606 4.97363C9.85131 6.89466 8.85411 9.38765 8.79992 11.9889C8.79977 11.9963 8.79977 12.0037 8.79992 12.0111C8.85411 14.6123 9.85131 17.1053 11.606 19.0264C11.7071 19.137 11.85 19.2 11.9998 19.2C12.1496 19.2 12.2925 19.137 12.3936 19.0264C14.1483 17.1053 15.1455 14.6123 15.1997 12.0111C15.1998 12.0037 15.1998 11.9963 15.1997 11.9889C15.1455 9.38765 14.1483 6.89466 12.3936 4.97363L11.9998 5.33333Z" fill="#F0F0F0"/>
</g>
<defs>
<linearGradient id="paint0_linear_1280_6262" x1="1.75238e-07" y1="5.37" x2="25.4819" y2="12.6947" gradientUnits="userSpaceOnUse">
<stop offset="0.0752848" stop-color="#583866"/>
<stop offset="0.57229" stop-color="#3D2450"/>
<stop offset="1" stop-color="#2B2680"/>
</linearGradient>
<clipPath id="clip0_1280_6262">
<rect width="16" height="16" fill="white" transform="translate(4 4)"/>
</clipPath>
</defs>
</svg>
