<svg width="24" height="24" viewBox="0 0 24 24" fill="none" xmlns="http://www.w3.org/2000/svg">
<rect width="24" height="24" rx="6" fill="url(#paint0_linear_1280_6349)"/>
<path d="M5.33301 7.65789C5.33301 7.21819 5.5086 6.7965 5.82116 6.48559C6.13372 6.17467 6.55765 6 6.99967 6H16.9997C17.4417 6 17.8656 6.17467 18.1782 6.48559C18.4907 6.7965 18.6663 7.21819 18.6663 7.65789V16.3421C18.6663 16.7818 18.4907 17.2035 18.1782 17.5144C17.8656 17.8253 17.4417 18 16.9997 18H6.99967C6.55765 18 6.13372 17.8253 5.82116 17.5144C5.5086 17.2035 5.33301 16.7818 5.33301 16.3421V7.65789ZM17.833 8.05264H14.4997V10.5395H17.833V8.05264ZM17.833 11.3684H14.4997V13.8553H17.833V11.3684ZM17.833 14.6842H14.4997V17.1711H16.9997C17.2207 17.1711 17.4327 17.0837 17.5889 16.9283C17.7452 16.7728 17.833 16.562 17.833 16.3421V14.6842ZM13.6663 17.1711V14.6842H10.333V17.1711H13.6663ZM9.49967 17.1711V14.6842H6.16634V16.3421C6.16634 16.562 6.25414 16.7728 6.41042 16.9283C6.5667 17.0837 6.77866 17.1711 6.99967 17.1711H9.49967ZM6.16634 13.8553H9.49967V11.3684H6.16634V13.8553ZM6.16634 10.5395H9.49967V8.05264H6.16634V10.5395ZM10.333 8.05264V10.5395H13.6663V8.05264H10.333ZM13.6663 11.3684H10.333V13.8553H13.6663V11.3684Z" fill="#F0F0F0"/>
<defs>
<linearGradient id="paint0_linear_1280_6349" x1="23.1" y1="1.71429" x2="0.657138" y2="1.6757" gradientUnits="userSpaceOnUse">
<stop stop-color="#64C4DC"/>
<stop offset="0.738299" stop-color="#387EAA"/>
</linearGradient>
</defs>
</svg>
