<svg width="24" height="24" viewBox="0 0 24 24" fill="none" xmlns="http://www.w3.org/2000/svg">
<rect width="24" height="24" rx="6" fill="url(#paint0_linear_1280_6255)"/>
<path fill-rule="evenodd" clip-rule="evenodd" d="M12.0003 6.00002C8.68662 6.00002 6.00033 8.68631 6.00033 12C6.00033 15.3137 8.68662 18 12.0003 18C15.314 18 18.0003 15.3137 18.0003 12C18.0003 8.68631 15.314 6.00002 12.0003 6.00002ZM4.66699 12C4.66699 7.94993 7.95024 4.66669 12.0003 4.66669C16.0504 4.66669 19.3337 7.94993 19.3337 12C19.3337 16.0501 16.0504 19.3334 12.0003 19.3334C7.95024 19.3334 4.66699 16.0501 4.66699 12Z" fill="#F0F0F0"/>
<path fill-rule="evenodd" clip-rule="evenodd" d="M11.9997 7.33331C12.3679 7.33331 12.6663 7.63179 12.6663 7.99998V11.588L14.9645 12.737C15.2938 12.9017 15.4273 13.3021 15.2626 13.6315C15.098 13.9608 14.6975 14.0943 14.3682 13.9296L11.7015 12.5963C11.4757 12.4833 11.333 12.2525 11.333 12V7.99998C11.333 7.63179 11.6315 7.33331 11.9997 7.33331Z" fill="#F0F0F0"/>
<defs>
<linearGradient id="paint0_linear_1280_6255" x1="23.23" y1="1.07006" x2="4.8814" y2="-2.33145" gradientUnits="userSpaceOnUse">
<stop stop-color="#47B7E9"/>
<stop offset="0.820789" stop-color="#005D7D"/>
</linearGradient>
</defs>
</svg>
