<svg width="24" height="24" viewBox="0 0 24 24" fill="none" xmlns="http://www.w3.org/2000/svg">
<rect width="24" height="24" rx="6" fill="url(#paint0_linear_1280_6403)"/>
<path d="M14.342 13.5648C14.342 13.4248 14.399 13.2906 14.5003 13.1916C14.6017 13.0926 14.7392 13.037 14.8826 13.037H16.324C16.4674 13.037 16.6048 13.0926 16.7062 13.1916C16.8076 13.2906 16.8645 13.4248 16.8645 13.5648C16.8645 13.7048 16.8076 13.839 16.7062 13.938C16.6048 14.037 16.4674 14.0926 16.324 14.0926H14.8826C14.7392 14.0926 14.6017 14.037 14.5003 13.938C14.399 13.839 14.342 13.7048 14.342 13.5648ZM5.33301 7.40741H5.3431C5.38742 7.02036 5.57628 6.66284 5.87358 6.4032C6.17088 6.14356 6.55576 6.00001 6.95463 6H15.2429C15.4559 6 15.6667 6.04095 15.8635 6.12052C16.0602 6.20009 16.239 6.31672 16.3896 6.46375C16.5402 6.61077 16.6596 6.78532 16.7411 6.97742C16.8226 7.16952 16.8645 7.37541 16.8645 7.58333V8.17233C17.3776 8.29127 17.8345 8.57569 18.1615 8.9796C18.4885 9.38351 18.6663 9.8833 18.6663 10.3981V16.3796C18.6663 16.9862 18.4196 17.5679 17.9803 17.9968C17.541 18.4257 16.9452 18.6667 16.324 18.6667H7.67535C7.05412 18.6667 6.45834 18.4257 6.01906 17.9968C5.57979 17.5679 5.33301 16.9862 5.33301 16.3796V7.40741ZM16.324 9.16667H6.41409V16.3796C6.41409 17.0594 6.97913 17.6111 7.67535 17.6111H16.324C16.6585 17.6111 16.9793 17.4814 17.2158 17.2504C17.4524 17.0195 17.5853 16.7062 17.5853 16.3796V10.3981C17.5853 10.0715 17.4524 9.75831 17.2158 9.52736C16.9793 9.29641 16.6585 9.16667 16.324 9.16667ZM15.7835 8.11111V7.58333C15.7835 7.44336 15.7265 7.30912 15.6251 7.21014C15.5238 7.11116 15.3863 7.05556 15.2429 7.05556H6.95463C6.81127 7.05556 6.67378 7.11116 6.57241 7.21014C6.47104 7.30912 6.41409 7.44336 6.41409 7.58333C6.41409 7.72331 6.47104 7.85755 6.57241 7.95653C6.67378 8.05551 6.81127 8.11111 6.95463 8.11111H15.7835Z" fill="#F0F0F0"/>
<defs>
<linearGradient id="paint0_linear_1280_6403" x1="23.1" y1="1.71429" x2="0.657138" y2="1.6757" gradientUnits="userSpaceOnUse">
<stop stop-color="#E8208E"/>
<stop offset="0.738299" stop-color="#86226A"/>
</linearGradient>
</defs>
</svg>
