<svg width="24" height="24" viewBox="0 0 24 24" fill="none" xmlns="http://www.w3.org/2000/svg">
<circle cx="12" cy="12" r="12" fill="#8F5FE5"/>
<path d="M16.3205 9.07795C16.0135 8.9025 15.6187 8.9025 15.2678 9.07795L12.8114 10.5255L11.1446 11.4466L8.73203 12.8941C8.42498 13.0696 8.0302 13.0696 7.67929 12.8941L5.79313 11.7537C5.48608 11.5782 5.26676 11.2273 5.26676 10.8325V8.63931C5.26676 8.2884 5.44221 7.93748 5.79313 7.71816L7.67929 6.62156C7.98634 6.4461 8.38112 6.4461 8.73203 6.62156L10.6182 7.76203C10.9252 7.93748 11.1446 8.2884 11.1446 8.68318V10.1307L12.8114 9.16568V7.6743C12.8114 7.32338 12.6359 6.97247 12.285 6.75315L8.77589 4.69153C8.46884 4.51607 8.07407 4.51607 7.72315 4.69153L4.12629 6.79701C3.77537 6.97247 3.59991 7.32338 3.59991 7.6743V11.7975C3.59991 12.1485 3.77537 12.4994 4.12629 12.7187L7.67929 14.7803C7.98634 14.9558 8.38112 14.9558 8.73203 14.7803L11.1446 13.3766L12.8114 12.4116L15.2239 11.008C15.531 10.8325 15.9258 10.8325 16.2767 11.008L18.1628 12.1046C18.4699 12.28 18.6892 12.631 18.6892 13.0257V15.2189C18.6892 15.5699 18.5138 15.9208 18.1628 16.1401L16.3205 17.2367C16.0135 17.4122 15.6187 17.4122 15.2678 17.2367L13.3816 16.1401C13.0746 15.9646 12.8553 15.6137 12.8553 15.2189V13.8153L11.1884 14.7803V16.2278C11.1884 16.5787 11.3639 16.9297 11.7148 17.149L15.2678 19.2106C15.5749 19.386 15.9696 19.386 16.3205 19.2106L19.8735 17.149C20.1806 16.9735 20.3999 16.6226 20.3999 16.2278V12.0607C20.3999 11.7098 20.2245 11.3589 19.8735 11.1396L16.3205 9.07795Z" fill="white"/>
</svg>
