<svg xmlns="http://www.w3.org/2000/svg" viewBox="0 0 113 20">
  <g fill="none" fill-rule="evenodd">
    <path fill="#E41513" d="M8.056 4.587a3.637 3.637 0 1 1 0 7.275 3.637 3.637 0 1 1 0-7.275z"></path>
    <path fill="#000" d="M3.455 8.208a4.6 4.6 0 1 1 9.202 0 4.6 4.6 0 0 1-9.202 0m13.238-.166c0-4.419-3.904-8.007-8.322-8.007C3.97.035 0 3.358 0 8.042c0 5.249 4.202 8.304 8.305 8.388h-.033 8.437V7.942c-.016 0-.016.1-.016.1m9.036-.299l-1.595 4.07h3.173l-1.578-4.07zm-1.146-3.14h2.292l4.551 11.843h-2.342l-.93-2.441H23.32l-.964 2.441h-2.342l4.568-11.843zm12.822 4.884c-.697 0-1.262.232-1.727.714-.449.465-.68 1.096-.68 1.844 0 .78.231 1.411.68 1.893.448.482 1.03.714 1.727.714.665 0 1.23-.25 1.695-.73.465-.482.68-1.113.68-1.86 0-.748-.232-1.362-.68-1.845-.432-.498-.997-.73-1.695-.73zm-2.309-1.81v.962a4.136 4.136 0 0 1 1.296-.896c.465-.2.947-.3 1.478-.3 1.146 0 2.11.433 2.908 1.296.796.864 1.195 1.977 1.195 3.322 0 1.296-.415 2.392-1.245 3.272-.831.88-1.81 1.313-2.94 1.313-.499 0-.98-.083-1.413-.266a4.279 4.279 0 0 1-1.295-.88v4.135h-2.176V7.676h2.192zm13.189 1.81c-.698 0-1.262.232-1.728.714-.448.465-.68 1.096-.68 1.844 0 .78.232 1.411.68 1.893.449.482 1.03.714 1.728.714.664 0 1.229-.25 1.694-.73.465-.482.681-1.113.681-1.86 0-.748-.233-1.362-.68-1.845-.433-.498-.998-.73-1.695-.73zm-2.309-1.81v.962a4.136 4.136 0 0 1 1.296-.896c.465-.2.946-.3 1.478-.3 1.146 0 2.11.433 2.907 1.296.797.864 1.195 1.977 1.195 3.322 0 1.296-.414 2.392-1.245 3.272-.83.88-1.81 1.313-2.94 1.313-.498 0-.98-.083-1.412-.266a4.279 4.279 0 0 1-1.295-.88v4.135h-2.176V7.676h2.192zm8.471 8.77h2.192V4.305h-2.192zm3.937-.017h2.192V7.675h-2.192v8.753zm1.113-12.358c.382 0 .714.133.996.415.283.282.416.615.416 1.014 0 .398-.133.73-.416.996a1.293 1.293 0 0 1-.98.415c-.399 0-.73-.132-.996-.415a1.403 1.403 0 0 1-.416-1.03c0-.382.133-.714.416-.996.266-.25.581-.4.98-.4zm11.66 5.381l-1.828 1.014c-.348-.366-.68-.615-1.013-.748a3.175 3.175 0 0 0-1.179-.216c-.813 0-1.495.25-1.993.73-.515.5-.764 1.114-.764 1.878 0 .748.249 1.345.73 1.827.482.465 1.13.714 1.927.714.98 0 1.745-.332 2.292-1.013l1.728 1.18c-.947 1.228-2.26 1.827-3.97 1.827-1.545 0-2.74-.449-3.62-1.362-.881-.914-1.313-1.977-1.313-3.206 0-.847.216-1.628.631-2.342a4.435 4.435 0 0 1 1.778-1.678c.764-.415 1.61-.614 2.541-.614.863 0 1.645.166 2.342.515a4.795 4.795 0 0 1 1.71 1.494m5.548.034c-.68 0-1.245.232-1.694.714-.448.482-.68 1.096-.68 1.844 0 .764.232 1.378.68 1.86.465.482 1.013.73 1.694.73.698 0 1.263-.232 1.711-.714.449-.481.681-1.112.681-1.893 0-.764-.232-1.378-.68-1.844-.45-.465-1.014-.697-1.712-.697zm2.31-1.81h2.192v8.753h-2.193v-.93a4.288 4.288 0 0 1-1.295.88 3.537 3.537 0 0 1-1.395.266c-1.13 0-2.11-.433-2.94-1.313-.831-.88-1.246-1.96-1.246-3.272 0-1.345.399-2.458 1.195-3.322.798-.863 1.762-1.296 2.908-1.296.531 0 1.013.1 1.478.3.464.199.88.498 1.279.896v-.963h.016zm4.683-3.223h2.193v3.222h1.295V9.57H85.89v6.859h-2.193V9.57h-1.129V7.676h1.129zm4.668 3.222h2.226v4.219c0 .814.049 1.396.166 1.711.116.315.298.565.547.748.25.182.566.265.93.265.366 0 .682-.083.93-.265.25-.167.45-.433.565-.765.1-.249.133-.797.133-1.611V7.676h2.193v3.704c0 1.528-.116 2.575-.365 3.14-.3.68-.732 1.212-1.296 1.577-.582.366-1.295.549-2.192.549-.964 0-1.744-.217-2.326-.648-.598-.432-1.013-1.03-1.246-1.794-.166-.532-.265-1.495-.265-2.89V7.676zm9.385 0h1.876v1.096c.2-.431.482-.764.814-.996a1.903 1.903 0 0 1 1.113-.333c.282 0 .581.083.897.233l-.681 1.894c-.266-.133-.466-.2-.631-.2-.332 0-.632.217-.864.631-.233.416-.349 1.246-.349 2.46v3.968H97.75V7.676zm12.357 3.289a2.287 2.287 0 0 0-.864-1.196 2.577 2.577 0 0 0-1.495-.465c-.614 0-1.146.166-1.61.515-.283.216-.565.598-.815 1.13h4.784v.016zm2.192 1.727h-7.059c.1.615.382 1.113.814 1.478.449.366 1.013.549 1.694.549.814 0 1.529-.283 2.11-.864l1.844.864c-.466.647-1.014 1.146-1.661 1.445-.648.315-1.412.465-2.293.465-1.378 0-2.491-.432-3.355-1.296-.864-.863-1.295-1.943-1.295-3.255 0-1.329.431-2.442 1.295-3.322.864-.88 1.944-1.33 3.239-1.33 1.379 0 2.508.45 3.372 1.33.864.88 1.295 2.043 1.295 3.505v.431z">
    </path>
  </g>
</svg>
