<svg width="16" height="16" viewBox="0 0 16 16" fill="none" xmlns="http://www.w3.org/2000/svg">
<path fill-rule="evenodd" clip-rule="evenodd" d="M7.33301 6.66666C6.96482 6.66666 6.66634 6.96514 6.66634 7.33333V13.3333C6.66634 13.7015 6.96482 14 7.33301 14H13.333C13.7012 14 13.9997 13.7015 13.9997 13.3333V7.33333C13.9997 6.96514 13.7012 6.66666 13.333 6.66666H7.33301ZM5.33301 7.33333C5.33301 6.22876 6.22844 5.33333 7.33301 5.33333H13.333C14.4376 5.33333 15.333 6.22876 15.333 7.33333V13.3333C15.333 14.4379 14.4376 15.3333 13.333 15.3333H7.33301C6.22844 15.3333 5.33301 14.4379 5.33301 13.3333V7.33333Z" fill="#F0F0F0"/>
<path fill-rule="evenodd" clip-rule="evenodd" d="M2.66699 2.00001C2.49018 2.00001 2.32061 2.07024 2.19559 2.19527C2.07056 2.32029 2.00033 2.48986 2.00033 2.66667V8.66667C2.00033 8.84348 2.07056 9.01305 2.19559 9.13808C2.32061 9.2631 2.49018 9.33334 2.66699 9.33334H3.33366C3.70185 9.33334 4.00033 9.63181 4.00033 10C4.00033 10.3682 3.70185 10.6667 3.33366 10.6667H2.66699C2.13656 10.6667 1.62785 10.456 1.25278 10.0809C0.877706 9.70581 0.666992 9.19711 0.666992 8.66667V2.66667C0.666992 2.13624 0.877706 1.62753 1.25278 1.25246C1.62785 0.877385 2.13656 0.666672 2.66699 0.666672H8.66699C9.19743 0.666672 9.70613 0.877385 10.0812 1.25246C10.4563 1.62753 10.667 2.13624 10.667 2.66667V3.33334C10.667 3.70153 10.3685 4.00001 10.0003 4.00001C9.63214 4.00001 9.33366 3.70153 9.33366 3.33334V2.66667C9.33366 2.48986 9.26342 2.32029 9.1384 2.19527C9.01337 2.07024 8.8438 2.00001 8.66699 2.00001H2.66699Z" fill="#F0F0F0"/>
</svg>
