<svg width="20" height="17" viewBox="0 0 20 17" fill="none" xmlns="http://www.w3.org/2000/svg">
<path d="M18.9444 0H1.05556C0.472588 0 0 0.425329 0 0.95V1.05C0 1.57467 0.472588 2 1.05556 2H18.9444C19.5274 2 20 1.57467 20 1.05V0.95C20 0.425329 19.5274 0 18.9444 0Z" fill="#F0F0F0"/>
<path d="M14.2083 5H0.791667C0.354441 5 0 5.42533 0 5.95V6.05C0 6.57467 0.354441 7 0.791667 7H14.2083C14.6456 7 15 6.57467 15 6.05V5.95C15 5.42533 14.6456 5 14.2083 5Z" fill="#F0F0F0"/>
<path d="M17.9972 10H1.00278C0.448959 10 0 10.4253 0 10.95V11.05C0 11.5747 0.448959 12 1.00278 12H17.9972C18.551 12 19 11.5747 19 11.05V10.95C19 10.4253 18.551 10 17.9972 10Z" fill="#F0F0F0"/>
<path d="M13.2611 15H0.738889C0.330812 15 0 15.4253 0 15.95V16.05C0 16.5747 0.330812 17 0.738889 17H13.2611C13.6692 17 14 16.5747 14 16.05V15.95C14 15.4253 13.6692 15 13.2611 15Z" fill="#F0F0F0"/>
</svg>
