<svg width="83" height="15" viewBox="0 0 83 15" fill="none" xmlns="http://www.w3.org/2000/svg">
<path d="M19.6022 4.3966L21.2705 4.3966L24.5622 12.6557L22.8487 12.6557L22.1724 10.9604L18.7004 10.9604L18.024 12.6557L16.3105 12.6557L19.6022 4.3966ZM20.4138 6.57005L19.2415 9.39554L21.5411 9.39554L20.4138 6.57005Z" fill="#ABABAF"/>
<path d="M27.2208 6.52771L27.2208 7.17974C27.4913 6.91893 27.8069 6.70158 28.1677 6.57118C28.4833 6.44077 28.844 6.35383 29.2499 6.35383C30.0615 6.35383 30.783 6.65812 31.3691 7.26668C31.9553 7.87525 32.2259 8.65769 32.2259 9.57054C32.2259 10.4834 31.9102 11.2224 31.324 11.8309C30.7379 12.4395 30.0164 12.7438 29.2048 12.7438C28.844 12.7438 28.4833 12.7003 28.1677 12.5699C27.852 12.4395 27.5364 12.2656 27.2208 11.9613L27.2208 14.8303L25.6426 14.8303L25.6426 6.52771L27.2208 6.52771ZM28.8891 7.78831C28.3931 7.78831 27.9873 7.96219 27.6266 8.26647C27.3109 8.57075 27.1306 9.04891 27.1306 9.57054C27.1306 10.1356 27.3109 10.5703 27.6266 10.8746C27.9422 11.2224 28.3931 11.3528 28.8891 11.3528C29.3851 11.3528 29.7909 11.1789 30.1066 10.8311C30.4222 10.4834 30.6026 10.0487 30.6026 9.52707C30.6026 9.00544 30.4222 8.57075 30.1066 8.223C29.7909 7.96219 29.3851 7.78831 28.8891 7.78831Z" fill="#ABABAF"/>
<path d="M35.0684 6.52771L35.0684 7.17974C35.339 6.91893 35.6546 6.70158 36.0153 6.57118C36.331 6.44077 36.6917 6.35383 37.0975 6.35383C37.9091 6.35383 38.6306 6.65812 39.2168 7.26668C39.803 7.87525 40.0735 8.65769 40.0735 9.57054C40.0735 10.4834 39.7579 11.2224 39.1717 11.8309C38.5855 12.4395 37.8641 12.7438 37.0524 12.7438C36.6917 12.7438 36.331 12.7003 36.0153 12.5699C35.6997 12.4395 35.3841 12.2656 35.0684 11.9613L35.0684 14.8303L33.4902 14.8303L33.4902 6.52771L35.0684 6.52771ZM36.7368 7.78831C36.2408 7.78831 35.835 7.96219 35.4742 8.26647C35.1586 8.57075 34.9782 9.04891 34.9782 9.57054C34.9782 10.1356 35.1586 10.5703 35.4742 10.8746C35.7899 11.2224 36.2408 11.3528 36.7368 11.3528C37.2328 11.3528 37.6386 11.1789 37.9542 10.8311C38.2699 10.4834 38.4502 10.0487 38.4502 9.52707C38.4502 9.00544 38.2699 8.57075 37.9542 8.223C37.6386 7.96219 37.2328 7.78831 36.7368 7.78831Z" fill="#ABABAF"/>
<path d="M41.1982 4.18056L42.7764 4.18056L42.7764 12.657L41.1982 12.657L41.1982 4.18056Z" fill="#ABABAF"/>
<path d="M44.8515 4.04902C45.1221 4.04902 45.3475 4.13595 45.573 4.30983C45.7985 4.52718 45.8886 4.74452 45.8886 5.00534C45.8886 5.26615 45.7985 5.52696 45.573 5.70084C45.3926 5.91818 45.1221 6.00512 44.8515 6.00512C44.581 6.00512 44.3105 5.91818 44.1301 5.70084C43.9046 5.48349 43.8145 5.26615 43.8145 4.96187C43.8145 4.70105 43.9046 4.48371 44.1301 4.26636C44.3105 4.13596 44.5359 4.04902 44.8515 4.04902ZM44.0399 6.52675L45.6181 6.52675L45.6181 12.6124L44.0399 12.6124L44.0399 6.52675Z" fill="#ABABAF"/>
<path d="M53.2839 7.78831L51.9763 8.48382C51.7058 8.223 51.4803 8.04913 51.2548 7.96219C51.0294 7.87525 50.7138 7.83178 50.3981 7.83178C49.8119 7.83178 49.3159 8.00566 48.9552 8.35341C48.5945 8.70116 48.4141 9.13585 48.4141 9.65748C48.4141 10.1791 48.5945 10.6138 48.9552 10.9181C49.3159 11.2224 49.7668 11.3962 50.353 11.3962C51.0745 11.3962 51.6156 11.1789 52.0214 10.7007L53.2839 11.5266C52.6076 12.396 51.6607 12.7873 50.3981 12.7873C49.2708 12.7873 48.4141 12.483 47.7828 11.8309C47.1516 11.1789 46.8359 10.4399 46.8359 9.61401C46.8359 9.00544 46.9712 8.48382 47.2868 7.96219C47.6025 7.48403 48.0083 7.09281 48.5494 6.78852C49.0905 6.48424 49.7218 6.35383 50.3981 6.35383C51.0294 6.35383 51.5705 6.48424 52.1116 6.70158C52.5174 7.00587 52.9232 7.35362 53.2839 7.78831Z" fill="#ABABAF"/>
<path d="M58.9209 6.52771L60.4991 6.52771L60.4991 12.6134L58.9209 12.6134L58.9209 11.9613C58.6053 12.2656 58.2897 12.4395 57.974 12.5699C57.6584 12.7003 57.3428 12.7438 56.982 12.7438C56.1704 12.7438 55.4489 12.4395 54.8628 11.8309C54.2766 11.2224 53.9609 10.4834 53.9609 9.57054C53.9609 8.61422 54.2315 7.87525 54.8177 7.26668C55.4038 6.65812 56.0802 6.35383 56.9369 6.35383C57.3428 6.35383 57.6584 6.44077 58.0191 6.57118C58.3348 6.70158 58.6504 6.91893 58.9209 7.17974L58.9209 6.52771ZM57.2526 7.78831C56.7566 7.78831 56.3508 7.96219 56.0351 8.26647C55.7195 8.61422 55.5391 9.04891 55.5391 9.57054C55.5391 10.0922 55.7195 10.5269 56.0351 10.8746C56.3508 11.2224 56.7566 11.3962 57.2526 11.3962C57.7486 11.3962 58.1544 11.2224 58.47 10.9181C58.7857 10.5703 58.966 10.1356 58.966 9.61401C58.966 9.09238 58.7857 8.65769 58.47 8.30994C58.1995 7.96219 57.7937 7.78831 57.2526 7.78831Z" fill="#ABABAF"/>
<path d="M62.3468 4.30919L63.925 4.30919L63.925 6.56958L64.8719 6.56958L64.8719 7.87365L63.925 7.87365L63.925 12.6552L62.3468 12.6552L62.3468 7.87365L61.5352 7.87365L61.5352 6.56958L62.3468 6.56958L62.3468 4.30919Z" fill="#ABABAF"/>
<path d="M65.6846 6.52762L67.3078 6.52762L67.3078 9.48352C67.3078 10.0486 67.3529 10.4398 67.4431 10.6572C67.5333 10.8745 67.6686 11.0484 67.8489 11.1788C68.0293 11.3092 68.2547 11.3527 68.5253 11.3527C68.7958 11.3527 69.0213 11.3092 69.2017 11.1788C69.382 11.0484 69.5173 10.8745 69.6075 10.6572C69.6977 10.4833 69.6977 10.0921 69.6977 9.52699L69.6977 6.52762L71.2758 6.52762L71.2758 9.0923C71.2758 10.1356 71.1857 10.8745 71.0053 11.2657C70.7798 11.7439 70.4642 12.0917 70.0584 12.3525C69.6526 12.6133 69.1115 12.7437 68.4802 12.7437C67.8038 12.7437 67.2177 12.6133 66.8118 12.309C66.3609 12.0047 66.0904 11.57 65.91 11.0484C65.7748 10.6572 65.7297 10.0051 65.7297 9.04883L65.7297 6.52762L65.6846 6.52762Z" fill="#ABABAF"/>
<path d="M72.4933 6.52665L73.8461 6.52665L73.8461 7.3091C73.9813 7.00481 74.2068 6.78747 74.4322 6.61359C74.6577 6.43971 74.9282 6.39625 75.2439 6.39625C75.4693 6.39625 75.6497 6.43971 75.8751 6.57012L75.3792 7.87419C75.1988 7.78726 75.0635 7.74379 74.9282 7.74379C74.7028 7.74379 74.4773 7.87419 74.297 8.17848C74.1166 8.48276 74.0264 9.04786 74.0264 9.87377L74.0264 10.1781L74.0264 12.6558L72.4482 12.6558L72.4933 6.52665Z" fill="#ABABAF"/>
<path d="M82.9996 10.0476L77.9044 10.0476C77.9945 10.4823 78.1749 10.8301 78.4905 11.0909C78.8062 11.3517 79.212 11.4821 79.708 11.4821C80.2942 11.4821 80.7902 11.2648 81.2411 10.8736L82.5938 11.4821C82.2782 11.9168 81.8724 12.2646 81.3764 12.4819C80.9254 12.6993 80.3393 12.7862 79.708 12.7862C78.716 12.7862 77.9044 12.4819 77.2731 11.8733C76.6418 11.2648 76.3262 10.5258 76.3262 9.61295C76.3262 8.7001 76.6418 7.91766 77.2731 7.3091C77.9044 6.70053 78.6709 6.39625 79.6178 6.39625C80.6098 6.39625 81.4214 6.70053 82.0527 7.3091C82.684 7.91766 82.9996 8.74357 82.9996 9.74336L82.9996 10.0476ZM81.4214 8.83051C81.3313 8.48276 81.1058 8.22194 80.7902 8.0046C80.4745 7.78725 80.1138 7.70032 79.708 7.70032C79.2571 7.70032 78.8964 7.83072 78.5356 8.04807C78.3102 8.17848 78.1298 8.48276 77.9494 8.83051L81.4214 8.83051Z" fill="#ABABAF"/>
<path d="M7.21326 3.51205C8.75765 3.51205 10.0125 4.76315 10.0125 6.30296C10.0125 7.84277 8.75765 9.09387 7.21326 9.09387C5.66888 9.09387 4.41406 7.84277 4.41406 6.30296C4.41406 4.76315 5.66888 3.51205 7.21326 3.51205Z" fill="#E41513"/>
<path d="M13.9206 6.15925C13.9206 2.74279 10.8801 -1.63748e-10 7.50171 -1.07834e-10C4.0751 0 0.986328 2.55031 0.986328 6.15925C0.986328 10.2013 4.21989 12.5591 7.40519 12.6553L7.35693 12.6553L10.9283 12.6553L13.1484 12.6553L13.8723 12.6553L13.8723 6.11113C13.9206 6.11113 13.9206 6.15925 13.9206 6.15925ZM3.64074 6.3036C3.64074 4.33072 5.23339 2.74279 7.21214 2.74279C9.19089 2.74279 10.7835 4.33072 10.7835 6.3036C10.7835 8.27649 9.19089 9.86442 7.21214 9.86442C5.23339 9.86442 3.64074 8.27649 3.64074 6.3036Z" fill="#ABABAF"/>
</svg>
