<svg width="184" height="86" viewBox="0 0 184 86" fill="none" xmlns="http://www.w3.org/2000/svg">
<g filter="url(#filter0_f_1265_1218)">
<path d="M76 40C76 56.5685 62.5685 70 46 70C29.4315 70 16 56.5685 16 40C16 23.4315 29.4315 10 46 10C62.5685 10 76 23.4315 76 40Z" fill="url(#paint0_radial_1265_1218)"/>
</g>
<g filter="url(#filter1_i_1265_1218)">
<path d="M71.6667 40.3333C71.6667 54.3245 60.3245 65.6667 46.3333 65.6667C32.3421 65.6667 21 54.3245 21 40.3333C21 26.3421 32.3421 15 46.3333 15C60.3245 15 71.6667 26.3421 71.6667 40.3333Z" fill="#F0F0F0"/>
</g>
<path d="M91.0682 37.3418L86 20.2339H90.6515L93.2792 31.4443H93.4238L96.4256 20.2339H100.218L103.22 31.4693H103.365L106.001 20.2339H110.644L105.584 37.3418H101.528L98.39 26.9668H98.2539L95.116 37.3418H91.0682Z" fill="url(#paint1_linear_1265_1218)"/>
<path d="M117.039 37.5841C115.672 37.5841 114.493 37.3196 113.501 36.7905C112.515 36.2559 111.755 35.4957 111.222 34.51C110.695 33.5187 110.431 32.3409 110.431 30.9765C110.431 29.6511 110.698 28.4927 111.231 27.5014C111.764 26.5046 112.515 25.7305 113.484 25.1792C114.454 24.6223 115.596 24.3438 116.911 24.3438C117.841 24.3438 118.691 24.4858 119.462 24.7698C120.233 25.0539 120.899 25.4743 121.461 26.0312C122.022 26.5881 122.458 27.2759 122.77 28.0945C123.082 28.9076 123.238 29.8404 123.238 30.8929V31.9121H111.885V29.5397H119.369C119.363 29.1053 119.258 28.7183 119.054 28.3785C118.85 28.0388 118.569 27.7743 118.212 27.585C117.861 27.39 117.455 27.2926 116.996 27.2926C116.531 27.2926 116.115 27.3956 115.746 27.6017C115.378 27.8022 115.086 28.0778 114.87 28.4287C114.655 28.7739 114.541 29.1666 114.53 29.6065V32.0207C114.53 32.5441 114.635 33.0036 114.845 33.399C115.054 33.7888 115.352 34.0923 115.738 34.3095C116.123 34.5267 116.582 34.6353 117.115 34.6353C117.484 34.6353 117.818 34.5852 118.119 34.4849C118.419 34.3847 118.677 34.2371 118.892 34.0422C119.108 33.8473 119.269 33.6078 119.377 33.3238L123.195 33.4324C123.037 34.2733 122.688 35.0056 122.149 35.6294C121.617 36.2475 120.916 36.7292 120.049 37.0745C119.182 37.4142 118.178 37.5841 117.039 37.5841Z" fill="url(#paint2_linear_1265_1218)"/>
<path d="M125.362 37.3418V20.2339H129.52V26.7078H129.605C129.775 26.318 130.016 25.9421 130.328 25.5801C130.645 25.2181 131.048 24.923 131.535 24.6947C132.029 24.4608 132.618 24.3438 133.304 24.3438C134.211 24.3438 135.059 24.5777 135.847 25.0455C136.64 25.5133 137.281 26.2345 137.769 27.2091C138.256 28.1836 138.5 29.4255 138.5 30.9347C138.5 32.3882 138.265 33.605 137.794 34.5852C137.329 35.5653 136.7 36.3004 135.906 36.7905C135.118 37.2806 134.242 37.5256 133.279 37.5256C132.621 37.5256 132.051 37.4198 131.569 37.2082C131.088 36.9966 130.682 36.7181 130.353 36.3728C130.03 36.0276 129.781 35.6572 129.605 35.2618H129.478V37.3418H125.362ZM129.435 30.9264C129.435 31.6169 129.529 32.2184 129.716 32.7307C129.908 33.2431 130.183 33.6412 130.54 33.9253C130.903 34.2037 131.337 34.3429 131.842 34.3429C132.352 34.3429 132.785 34.2037 133.143 33.9253C133.5 33.6412 133.769 33.2431 133.95 32.7307C134.138 32.2184 134.231 31.6169 134.231 30.9264C134.231 30.2358 134.138 29.6371 133.95 29.1304C133.769 28.6236 133.5 28.231 133.143 27.9525C132.791 27.6741 132.357 27.5348 131.842 27.5348C131.331 27.5348 130.898 27.6713 130.54 27.9442C130.183 28.217 129.908 28.6069 129.716 29.1137C129.529 29.6204 129.435 30.2247 129.435 30.9264Z" fill="url(#paint3_linear_1265_1218)"/>
<path d="M147.269 37.5757C145.943 37.5757 144.767 37.353 143.74 36.9075C142.72 36.4564 141.915 35.8354 141.325 35.0446C140.736 34.2538 140.435 33.3433 140.424 32.313H144.659C144.676 32.6862 144.798 33.0175 145.024 33.3071C145.251 33.5911 145.56 33.8139 145.951 33.9754C146.343 34.1369 146.788 34.2176 147.286 34.2176C147.785 34.2176 148.225 34.1313 148.605 33.9587C148.99 33.7805 149.291 33.5382 149.506 33.2319C149.721 32.9201 149.826 32.5636 149.821 32.1627C149.826 31.7617 149.71 31.4053 149.472 31.0934C149.234 30.7816 148.897 30.5393 148.46 30.3667C148.029 30.194 147.519 30.1077 146.929 30.1077H145.237V27.1673H146.929C147.445 27.1673 147.899 27.0838 148.29 26.9167C148.687 26.7496 148.996 26.5157 149.217 26.215C149.438 25.9087 149.546 25.5579 149.54 25.1625C149.546 24.7782 149.452 24.4413 149.259 24.1517C149.072 23.8565 148.809 23.6282 148.468 23.4667C148.134 23.3052 147.746 23.2244 147.303 23.2244C146.839 23.2244 146.416 23.3052 146.036 23.4667C145.662 23.6282 145.365 23.8565 145.144 24.1517C144.922 24.4468 144.806 24.7893 144.795 25.1792H140.773C140.784 24.16 141.073 23.2634 141.64 22.4893C142.207 21.7097 142.978 21.0999 143.953 20.6599C144.934 20.22 146.051 20 147.303 20C148.551 20 149.648 20.2144 150.594 20.6432C151.541 21.072 152.278 21.6568 152.805 22.3974C153.333 23.1326 153.596 23.9651 153.596 24.8951C153.602 25.8586 153.282 26.6522 152.635 27.2759C151.995 27.8996 151.17 28.2839 150.161 28.4287V28.5623C151.51 28.7183 152.528 29.1471 153.214 29.8488C153.905 30.5505 154.248 31.4276 154.243 32.4801C154.243 33.4714 153.945 34.3513 153.35 35.1198C152.76 35.8828 151.938 36.4842 150.884 36.9242C149.835 37.3585 148.63 37.5757 147.269 37.5757Z" fill="url(#paint4_linear_1265_1218)"/>
<path d="M96.2992 46.9422C96.2425 46.3296 95.9902 45.8534 95.5423 45.5137C95.1001 45.1684 94.468 44.9958 93.646 44.9958C93.1017 44.9958 92.6482 45.0654 92.2854 45.2046C91.9226 45.3439 91.6504 45.536 91.469 45.781C91.2876 46.0205 91.1941 46.2962 91.1884 46.608C91.1771 46.8642 91.2281 47.0897 91.3415 47.2847C91.4605 47.4796 91.6306 47.6522 91.8517 47.8026C92.0785 47.9474 92.3506 48.0755 92.6681 48.1868C92.9855 48.2982 93.3427 48.3957 93.7395 48.4792L95.2362 48.8133C96.0979 48.9971 96.8576 49.2422 97.5152 49.5484C98.1785 49.8547 98.7341 50.2195 99.1819 50.6428C99.6355 51.066 99.9784 51.5533 100.211 52.1046C100.443 52.6559 100.562 53.2741 100.568 53.9591C100.562 55.0395 100.285 55.9667 99.7347 56.7408C99.1848 57.5149 98.3939 58.108 97.3621 58.5201C96.336 58.9322 95.0973 59.1383 93.646 59.1383C92.189 59.1383 90.9191 58.9238 89.8363 58.495C88.7535 58.0662 87.9116 57.4146 87.3107 56.5403C86.7098 55.666 86.4008 54.5605 86.3838 53.224H90.4146C90.4486 53.7753 90.5988 54.2348 90.8653 54.6023C91.1317 54.9699 91.4974 55.2483 91.9622 55.4377C92.4328 55.627 92.977 55.7217 93.595 55.7217C94.1619 55.7217 94.6438 55.6465 95.0406 55.4961C95.4431 55.3458 95.7521 55.1369 95.9675 54.8696C96.1829 54.6023 96.2935 54.296 96.2992 53.9507C96.2935 53.6277 96.1914 53.3521 95.993 53.1237C95.7946 52.8898 95.4885 52.6894 95.0746 52.5223C94.6664 52.3497 94.1449 52.1909 93.5099 52.0461L91.6901 51.6285C90.1821 51.2888 88.9944 50.7402 88.1271 49.9828C87.2597 49.2199 86.8288 48.1896 86.8345 46.892C86.8288 45.8339 87.1179 44.9067 87.7019 44.1103C88.2858 43.314 89.0936 42.693 90.1254 42.2475C91.1572 41.802 92.3336 41.5792 93.6545 41.5792C95.0037 41.5792 96.1744 41.8048 97.1665 42.2559C98.1643 42.7014 98.9381 43.3279 99.4881 44.1354C100.038 44.9429 100.319 45.8785 100.33 46.9422H96.2992Z" fill="url(#paint5_linear_1265_1218)"/>
<path d="M105.237 63.7327C104.738 63.7327 104.267 63.6937 103.825 63.6157C103.383 63.5433 103.003 63.4459 102.685 63.3233L103.604 60.3579C104.012 60.4915 104.381 60.5695 104.709 60.5918C105.044 60.614 105.33 60.5611 105.568 60.433C105.812 60.3105 105.999 60.0905 106.129 59.7731L106.291 59.3889L101.648 46.0901H106.002L108.408 55.2455H108.545L110.985 46.0901H115.365L110.441 60.149C110.203 60.8507 109.865 61.4689 109.429 62.0035C108.998 62.5437 108.44 62.9669 107.754 63.2732C107.073 63.5795 106.234 63.7327 105.237 63.7327Z" fill="url(#paint6_linear_1265_1218)"/>
<path d="M121.117 51.6034V58.9211H116.959V46.0901H120.913V48.4458H121.058C121.347 47.6606 121.84 47.0452 122.537 46.5997C123.235 46.1486 124.065 45.923 125.029 45.923C125.947 45.923 126.744 46.1263 127.419 46.5328C128.099 46.9338 128.626 47.4963 129 48.2202C129.38 48.9386 129.567 49.7796 129.562 50.743V58.9211H125.403V51.5449C125.409 50.8321 125.225 50.2752 124.85 49.8742C124.482 49.4733 123.969 49.2728 123.311 49.2728C122.875 49.2728 122.489 49.3675 122.155 49.5568C121.826 49.7406 121.571 50.0051 121.389 50.3504C121.214 50.6957 121.123 51.1133 121.117 51.6034Z" fill="url(#paint7_linear_1265_1218)"/>
<path d="M138.242 59.1633C136.875 59.1633 135.696 58.8988 134.704 58.3697C133.718 57.8351 132.958 57.0749 132.425 56.0892C131.898 55.0979 131.634 53.9201 131.634 52.5557C131.634 51.2303 131.901 50.0719 132.434 49.0807C132.967 48.0838 133.718 47.3097 134.687 46.7584C135.657 46.2015 136.799 45.923 138.114 45.923C139.044 45.923 139.894 46.065 140.665 46.3491C141.436 46.6331 142.102 47.0535 142.664 47.6104C143.225 48.1673 143.661 48.8551 143.973 49.6737C144.285 50.4868 144.441 51.4196 144.441 52.4722V53.4913H133.088V51.1189H140.572C140.566 50.6845 140.461 50.2975 140.257 49.9578C140.053 49.6181 139.772 49.3535 139.415 49.1642C139.064 48.9693 138.658 48.8718 138.199 48.8718C137.734 48.8718 137.318 48.9748 136.949 49.1809C136.581 49.3814 136.289 49.657 136.073 50.0079C135.858 50.3532 135.744 50.7458 135.733 51.1857V53.5999C135.733 54.1234 135.838 54.5828 136.048 54.9782C136.258 55.368 136.555 55.6716 136.941 55.8887C137.326 56.1059 137.785 56.2145 138.318 56.2145C138.687 56.2145 139.021 56.1644 139.322 56.0642C139.622 55.9639 139.88 55.8163 140.096 55.6214C140.311 55.4265 140.473 55.1871 140.58 54.903L144.398 55.0116C144.24 55.8525 143.891 56.5849 143.352 57.2086C142.82 57.8268 142.119 58.3085 141.252 58.6537C140.385 58.9935 139.381 59.1633 138.242 59.1633Z" fill="url(#paint8_linear_1265_1218)"/>
<path d="M146.565 58.9211V46.0901H150.604V48.4291H150.74C150.978 47.5826 151.367 46.9533 151.905 46.5412C152.444 46.1235 153.07 45.9147 153.784 45.9147C153.977 45.9147 154.176 45.9286 154.38 45.9565C154.584 45.9787 154.774 46.0149 154.949 46.065V49.6153C154.751 49.5484 154.49 49.4955 154.167 49.4566C153.85 49.4176 153.566 49.3981 153.317 49.3981C152.824 49.3981 152.378 49.5067 151.982 49.7239C151.59 49.9355 151.282 50.2334 151.055 50.6177C150.834 50.9964 150.723 51.4419 150.723 51.9543V58.9211H146.565Z" fill="url(#paint9_linear_1265_1218)"/>
<path d="M162.054 64C160.813 64 159.75 63.8301 158.865 63.4904C157.981 63.1507 157.287 62.6857 156.782 62.0954C156.277 61.5051 155.974 60.8368 155.872 60.0905L159.809 59.8734C159.883 60.1351 160.019 60.3634 160.218 60.5583C160.422 60.7533 160.685 60.9036 161.008 61.0094C161.337 61.1152 161.723 61.1681 162.165 61.1681C162.862 61.1681 163.438 61.0011 163.891 60.6669C164.35 60.3384 164.58 59.762 164.58 58.9378V56.6823H164.435C164.271 57.0777 164.022 57.4314 163.687 57.7432C163.353 58.0551 162.936 58.3001 162.437 58.4783C161.944 58.6565 161.377 58.7456 160.736 58.7456C159.784 58.7456 158.911 58.5284 158.117 58.0941C157.329 57.6541 156.697 56.9747 156.221 56.0558C155.75 55.1314 155.515 53.9424 155.515 52.4889C155.515 50.9908 155.759 49.7573 156.246 48.7883C156.734 47.8137 157.372 47.0925 158.16 46.6247C158.953 46.1569 159.807 45.923 160.719 45.923C161.405 45.923 161.992 46.04 162.48 46.2739C162.973 46.5022 163.378 46.7974 163.696 47.1594C164.013 47.5213 164.254 47.8972 164.418 48.2871H164.537V46.0901H168.679V58.9712C168.679 60.0571 168.401 60.9732 167.845 61.7195C167.29 62.4657 166.513 63.031 165.515 63.4152C164.518 63.8051 163.364 64 162.054 64ZM162.182 55.7718C162.686 55.7718 163.117 55.6409 163.474 55.3792C163.832 55.1174 164.107 54.7415 164.299 54.2515C164.492 53.7614 164.588 53.1739 164.588 52.4889C164.588 51.7928 164.492 51.1941 164.299 50.6929C164.112 50.1861 163.837 49.7963 163.474 49.5234C163.117 49.2505 162.686 49.1141 162.182 49.1141C161.666 49.1141 161.229 49.2533 160.872 49.5317C160.515 49.8102 160.243 50.2028 160.056 50.7096C159.875 51.2108 159.784 51.8039 159.784 52.4889C159.784 53.1739 159.877 53.7614 160.064 54.2515C160.252 54.7415 160.521 55.1174 160.872 55.3792C161.229 55.6409 161.666 55.7718 162.182 55.7718Z" fill="url(#paint10_linear_1265_1218)"/>
<path d="M173.872 63.7327C173.374 63.7327 172.903 63.6937 172.461 63.6157C172.019 63.5433 171.639 63.4459 171.321 63.3233L172.24 60.3579C172.648 60.4915 173.016 60.5695 173.345 60.5918C173.68 60.614 173.966 60.5611 174.204 60.433C174.448 60.3105 174.635 60.0905 174.765 59.7731L174.927 59.3889L170.284 46.0901H174.638L177.044 55.2455H177.18L179.621 46.0901H184L179.077 60.149C178.839 60.8507 178.501 61.4689 178.065 62.0035C177.634 62.5437 177.075 62.9669 176.39 63.2732C175.709 63.5795 174.87 63.7327 173.872 63.7327Z" fill="url(#paint11_linear_1265_1218)"/>
<defs>
<filter id="filter0_f_1265_1218" x="0" y="-6" width="92" height="92" filterUnits="userSpaceOnUse" color-interpolation-filters="sRGB">
<feFlood flood-opacity="0" result="BackgroundImageFix"/>
<feBlend mode="normal" in="SourceGraphic" in2="BackgroundImageFix" result="shape"/>
<feGaussianBlur stdDeviation="8" result="effect1_foregroundBlur_1265_1218"/>
</filter>
<filter id="filter1_i_1265_1218" x="16" y="15" width="55.667" height="50.6667" filterUnits="userSpaceOnUse" color-interpolation-filters="sRGB">
<feFlood flood-opacity="0" result="BackgroundImageFix"/>
<feBlend mode="normal" in="SourceGraphic" in2="BackgroundImageFix" result="shape"/>
<feColorMatrix in="SourceAlpha" type="matrix" values="0 0 0 0 0 0 0 0 0 0 0 0 0 0 0 0 0 0 127 0" result="hardAlpha"/>
<feOffset dx="-5"/>
<feGaussianBlur stdDeviation="6.5"/>
<feComposite in2="hardAlpha" operator="arithmetic" k2="-1" k3="1"/>
<feColorMatrix type="matrix" values="0 0 0 0 0.278431 0 0 0 0 0.717647 0 0 0 0 0.913725 0 0 0 1 0"/>
<feBlend mode="normal" in2="shape" result="effect1_innerShadow_1265_1218"/>
</filter>
<radialGradient id="paint0_radial_1265_1218" cx="0" cy="0" r="1" gradientUnits="userSpaceOnUse" gradientTransform="translate(73.6562 40) rotate(180) scale(53.9062 61.7101)">
<stop offset="0.395683" stop-color="#47B7E9" stop-opacity="0.7"/>
<stop offset="1" stop-color="#E8208E" stop-opacity="0.7"/>
</radialGradient>
<linearGradient id="paint1_linear_1265_1218" x1="147.007" y1="25.7486" x2="129.822" y2="62.0352" gradientUnits="userSpaceOnUse">
<stop offset="0.118773" stop-color="#3891B9"/>
<stop offset="0.526557" stop-color="#8B5CA5"/>
<stop offset="0.988434" stop-color="#E8208E"/>
</linearGradient>
<linearGradient id="paint2_linear_1265_1218" x1="147.007" y1="25.7486" x2="129.822" y2="62.0352" gradientUnits="userSpaceOnUse">
<stop offset="0.118773" stop-color="#3891B9"/>
<stop offset="0.526557" stop-color="#8B5CA5"/>
<stop offset="0.988434" stop-color="#E8208E"/>
</linearGradient>
<linearGradient id="paint3_linear_1265_1218" x1="147.007" y1="25.7486" x2="129.822" y2="62.0352" gradientUnits="userSpaceOnUse">
<stop offset="0.118773" stop-color="#3891B9"/>
<stop offset="0.526557" stop-color="#8B5CA5"/>
<stop offset="0.988434" stop-color="#E8208E"/>
</linearGradient>
<linearGradient id="paint4_linear_1265_1218" x1="147.007" y1="25.7486" x2="129.822" y2="62.0352" gradientUnits="userSpaceOnUse">
<stop offset="0.118773" stop-color="#3891B9"/>
<stop offset="0.526557" stop-color="#8B5CA5"/>
<stop offset="0.988434" stop-color="#E8208E"/>
</linearGradient>
<linearGradient id="paint5_linear_1265_1218" x1="173.651" y1="48.9091" x2="153.355" y2="96.9861" gradientUnits="userSpaceOnUse">
<stop offset="0.118773" stop-color="#3891B9"/>
<stop offset="0.526557" stop-color="#8B5CA5"/>
<stop offset="0.988434" stop-color="#E8208E"/>
</linearGradient>
<linearGradient id="paint6_linear_1265_1218" x1="173.651" y1="48.9091" x2="153.355" y2="96.9861" gradientUnits="userSpaceOnUse">
<stop offset="0.118773" stop-color="#3891B9"/>
<stop offset="0.526557" stop-color="#8B5CA5"/>
<stop offset="0.988434" stop-color="#E8208E"/>
</linearGradient>
<linearGradient id="paint7_linear_1265_1218" x1="173.651" y1="48.9091" x2="153.355" y2="96.9861" gradientUnits="userSpaceOnUse">
<stop offset="0.118773" stop-color="#3891B9"/>
<stop offset="0.526557" stop-color="#8B5CA5"/>
<stop offset="0.988434" stop-color="#E8208E"/>
</linearGradient>
<linearGradient id="paint8_linear_1265_1218" x1="173.651" y1="48.9091" x2="153.355" y2="96.9861" gradientUnits="userSpaceOnUse">
<stop offset="0.118773" stop-color="#3891B9"/>
<stop offset="0.526557" stop-color="#8B5CA5"/>
<stop offset="0.988434" stop-color="#E8208E"/>
</linearGradient>
<linearGradient id="paint9_linear_1265_1218" x1="173.651" y1="48.9091" x2="153.355" y2="96.9861" gradientUnits="userSpaceOnUse">
<stop offset="0.118773" stop-color="#3891B9"/>
<stop offset="0.526557" stop-color="#8B5CA5"/>
<stop offset="0.988434" stop-color="#E8208E"/>
</linearGradient>
<linearGradient id="paint10_linear_1265_1218" x1="173.651" y1="48.9091" x2="153.355" y2="96.9861" gradientUnits="userSpaceOnUse">
<stop offset="0.118773" stop-color="#3891B9"/>
<stop offset="0.526557" stop-color="#8B5CA5"/>
<stop offset="0.988434" stop-color="#E8208E"/>
</linearGradient>
<linearGradient id="paint11_linear_1265_1218" x1="173.651" y1="48.9091" x2="153.355" y2="96.9861" gradientUnits="userSpaceOnUse">
<stop offset="0.118773" stop-color="#3891B9"/>
<stop offset="0.526557" stop-color="#8B5CA5"/>
<stop offset="0.988434" stop-color="#E8208E"/>
</linearGradient>
</defs>
</svg>
