<svg width="63" height="63" fill="none" xmlns="http://www.w3.org/2000/svg"><path d="M35.827.804a31 31 0 1 0 21.934 47.168 1.098 1.098 0 0 0-1.86-1.167A28.805 28.805 0 1 1 60.304 31.5a1.098 1.098 0 0 0 2.196 0A31 31 0 0 0 35.827.804Z" fill="currentColor" stroke="currentColor" stroke-linecap="round"/><path d="M62.196 35.827a31 31 0 1 0-47.168 21.934 1.098 1.098 0 0 0 1.167-1.86A28.804 28.804 0 1 1 31.5 60.304a1.098 1.098 0 0 0 0 2.196 31 31 0 0 0 30.696-26.673Z" fill="currentColor" stroke="currentColor" stroke-linecap="round"/><path d="m46.63 21.752-.353.353.352-.353a1.098 1.098 0 0 0-1.552 0L27.863 38.966l-9.931-10.143a1.098 1.098 0 1 0-1.57 1.537L27.07 41.294a1.098 1.098 0 0 0 1.561.008L46.63 23.305a1.098 1.098 0 0 0 0-1.553Z" fill="currentColor" stroke="currentColor" stroke-linecap="round" stroke-linejoin="round"/></svg>
